<svg width="800" height="600" xmlns="http://www.w3.org/2000/svg" style="vector-effect: non-scaling-stroke;" stroke="null">
 <defs style="vector-effect: non-scaling-stroke;" stroke="null">
  <radialGradient r="0.5" cy="0.5" cx="0.5" spreadMethod="pad" id="svg_34">
   <stop offset="0.66797" stop-opacity="0.99609" stop-color="#22e2a9"/>
   <stop offset="1" stop-color="#c0ff80"/>
  </radialGradient>
 </defs>
 <g stroke="null">
  <title stroke="null">Layer 1</title>
  <g stroke="null" id="svg_5">
   <ellipse transform="rotate(-0.201077 417 309)" stroke="#fff" stroke-width="5" ry="200" rx="203" id="svg_1" cy="309" cx="417.00001" fill="#000"/>
   <ellipse transform="rotate(-0.201077 417.011 307.998)" stroke="#fff" stroke-width="5" ry="175" rx="174" id="svg_4" cy="307.99821" cx="417.01054" fill="#000"/>
  </g>
  <g stroke="null" id="svg_36">
   <ellipse stroke="#000" ry="25.14349" rx="41.12245" id="svg_30" cy="190.14349" cx="410.91837" stroke-width="3" fill="#3f007f"/>
   <ellipse stroke="#000" ry="23.70672" rx="77.5" id="svg_29" cy="214.5686" cx="412.5" stroke-width="0" fill="#c4c4c4"/>
   <path stroke="#000" id="svg_31" d="m349.90691,444.61001l23.13138,-221.26274l77.1046,0l23.13137,221.26274l-123.36736,0z" stroke-width="0" fill="url(#svg_34)"/>
   <path stroke="#000" id="svg_35" d="m420.57414,331.67847c0.18392,0.24434 -1.07444,3.06437 -1.50038,3.27963c-0.62197,0.31431 -0.02425,1.53838 0.13167,1.85769c0.15593,0.31933 -0.13053,3.17349 -0.88881,5.3261c-0.75826,2.15262 2.85459,6.1106 3.1185,6.3864c0.26394,0.27581 10.24633,13.70491 10.17151,18.44823c-0.03592,2.27808 5.17456,4.64029 12.45851,2.28845c4.60025,-2.09252 2.74336,-6.32736 0.88901,-6.61595c-0.94631,-0.38299 -1.29007,-1.55015 0.0008,-1.75183c0.89556,-0.07129 4.08186,0.5844 4.49073,4.00232c0.34662,2.89758 -1.08358,5.23062 -3.97418,7.04705c-6.62818,3.10075 -14.10569,0.09496 -14.10569,0.09496c0,0 -1.587,1.11717 -2.44806,2.13291c-0.86107,1.01573 -4.67086,2.74196 -5.19581,2.85794c-0.52495,0.11601 -1.98938,3.66776 -1.68055,4.49869c0.01385,0.82241 -5.03125,5.18011 -6.28818,5.78211c-0.01364,0.86534 -2.22584,0.80138 -2.89763,0.02116c-0.67178,-0.78022 0.91218,-1.7051 1.72212,-2.03147c0.80995,-0.32637 4.18793,-2.73845 3.38448,-5.37636c-0.80344,-2.63792 -0.479,-5.34815 -0.479,-5.34815c0,0 -0.88793,0.1667 -1.36784,-0.02206c0,0 -0.98709,1.35312 -3.01197,2.16905c-0.92992,0.27919 -4.30746,0.11157 -4.97925,-0.66865c0,0 -2.96953,-0.5231 -3.28138,-1.16174c-0.31185,-0.63864 -1.66754,-1.4299 -1.55318,-3.57779c0,0 2.1808,-0.49662 2.39347,1.32845c0,0 4.74794,2.57708 5.14729,0.21878c0,0 1.07416,-1.77035 1.41028,-2.67009c0.3361,-0.89974 1.07719,-1.96266 2.21416,-2.61187c0,0 -2.28776,-5.47916 -2.62646,-6.96683c-0.33871,-1.48765 -2.35707,-3.636 -2.84304,-3.44019c-0.48598,0.19583 -4.9078,2.45529 -5.44792,3.53276c0,0 -1.01699,0.69641 -1.45792,0.58747c-0.44091,-0.10895 -2.56802,2.08571 -3.37753,-0.16762c-1.3585,-1.8888 -0.22587,-3.53941 1.47004,-1.35664c1.79987,-0.58196 7.63066,-6.70523 5.60472,-8.37285c-1.73035,-2.55103 1.10729,-2.59577 -3.96485,-3.75245c-4.68513,-1.45594 -9.37287,-5.29926 -10.94772,-4.95127c0,0 -0.37768,-1.56749 -1.66754,-1.4299c0,0 -2.3181,-3.55619 -1.55318,-3.57779c0.7649,-0.0216 2.19877,-0.36054 2.39345,1.32846c0,0 2.97365,2.81434 11.45797,3.21706c0,0 1.58698,-1.11716 3.31777,-1.14583c1.73078,-0.02864 7.29563,-3.32193 5.02258,-7.18288c0,0 -1.26761,-1.27258 0.77445,-3.17818c0,0 0.30406,-0.56837 0.97194,-0.39165c0.66789,0.1767 1.86562,0.77685 2.48355,0.71892c0.61794,-0.05793 1.60981,-0.01175 3.35328,1.70598c1.48021,0.55001 2.97184,-1.32487 3.15578,-1.08054z" stroke-width="0" fill="#141414"/>
  </g>
 </g>
</svg>